<svg width="27" height="30" viewBox="0 0 27 30" fill="none" xmlns="http://www.w3.org/2000/svg">
<path d="M14.8575 19.6343V23.3577C14.8575 23.3577 12.3811 23.3701 12.3687 23.3577V19.6343H8.63548C8.63548 19.6343 8.64793 17.1563 8.63548 17.1438H12.3687V13.408H14.8575V17.1438H18.5907V19.6343H14.8575Z" fill="white"/>
<path d="M24.2323 3.35227H22.9049V0.6875H20.2502V3.35227H6.97664V0.6875H4.32192V3.35227H2.99456C1.53447 3.35227 0.339844 4.55142 0.339844 6.01705V27.3352C0.339844 28.8009 1.53447 30 2.99456 30H24.2323C25.6924 30 26.887 28.8009 26.887 27.3352V6.01705C26.887 4.55142 25.6924 3.35227 24.2323 3.35227ZM24.2323 27.3352H2.99456V10.0142H24.2323V27.3352Z" fill="white"/>
</svg>
