<svg width="64" height="65" viewBox="0 0 64 67" fill="none" xmlns="http://www.w3.org/2000/svg">
<path d="M18.8947 27.9455C23.0456 27.9455 24.7894 26.1455 24.7894 23.9251C24.7894 21.7048 23.0456 19.9048 20.8947 19.9048C18.7437 19.9048 17 21.7048 17 23.9251C17 26.1455 18.7437 27.9455 20.8947 27.9455Z" fill="#FFF05A"/>
<path d="M17 0.0545349V5.12724C29.4876 5.12724 39.6126 15.3443 39.6126 27.9454H44.6396C44.6396 12.5481 32.2586 0.0545349 17 0.0545349ZM17 10.1999V15.2726C23.9277 15.2726 29.5586 20.9548 29.5586 27.9454H34.5856C34.5856 18.1406 26.7165 10.1999 17 10.1999Z" fill="#FFF05A"/>
<line y1="63" x2="64" y2="63" stroke="#FFF05A" stroke-width="8"/>
</svg>

