<svg width="28" height="28" viewBox="0 0 28 28" fill="none" xmlns="http://www.w3.org/2000/svg">
<path d="M3.89468 27.9455C6.04565 27.9455 7.78935 26.1455 7.78935 23.9251C7.78935 21.7048 6.04565 19.9048 3.89468 19.9048C1.74371 19.9048 0 21.7048 0 23.9251C0 26.1455 1.74371 27.9455 3.89468 27.9455Z" fill="white"/>
<path d="M0 0.0545349V5.12724C12.4876 5.12724 22.6126 15.3443 22.6126 27.9454H27.6396C27.6396 12.5481 15.2586 0.0545349 0 0.0545349ZM0 10.1999V15.2726C6.92767 15.2726 12.5586 20.9548 12.5586 27.9454H17.5856C17.5856 18.1406 9.71651 10.1999 0 10.1999Z" fill="white"/>
</svg>
