<svg width="18" height="20" viewBox="0 0 18 20" fill="none" xmlns="http://www.w3.org/2000/svg">
<path d="M12.5 12.6074H11.71L11.43 12.3113C12.41 11.0611 13 9.43802 13 7.67236C13 3.73528 10.09 0.543945 6.5 0.543945C2.91 0.543945 0 3.73528 0 7.67236C0 11.6094 2.91 14.8008 6.5 14.8008C8.11 14.8008 9.58999 14.1537 10.73 13.079L11 13.3861V14.2524L16 19.7249L17.49 18.0908L12.5 12.6074ZM6.5 12.6074C4.01 12.6074 2 10.4031 2 7.67236C2 4.94163 4.01 2.7373 6.5 2.7373C8.99 2.7373 11 4.94163 11 7.67236C11 10.4031 8.99 12.6074 6.5 12.6074Z" fill="black"/>
</svg>
